<svg 
          width="39.42742919921875" 
          height="81.38690948486328" fill="none" 
          xmlns="http://www.w3.org/2000/svg">
          <path d="M 16.129218219768777 81.38690948486328 L 16.129218219768777 71.37468767599326 C 10.014879421864581 71.27594951797563 3.689501846047737 69.49092470023884 0 67.01275211039894 L 2.529879773365469 60.371149852715654 C 6.914421549712017 63.090954168735294 12.231688433139084 64.58386575213954 17.710456653972493 64.63335053159206 C 25.1954861867131 64.63335053159187 30.255668135703644 60.56914286810915 30.255668135703644 54.91879085497318 C 30.255668135703644 49.466402853130845 26.144121204208382 46.09620610818858 18.343050875529695 43.12195903678137 C 7.590074365688951 39.15691516520498 0.9486422730443003 34.596617292579474 0.9486422730443003 25.97250637563258 C 0.9486422730443003 17.744324298289843 7.168521508180682 11.499131490400702 16.867360134107184 10.012243868326262 L 16.867360134107184 0 L 23.403223054672058 0 L 23.403223054672058 9.615864035394656 C 28.276969289606736 9.670938723184266 33.03088546311306 10.87438542614645 37.108138503401115 13.085251125292608 L 34.47224036045088 19.628084210230888 C 30.561868970432304 17.412380749780105 25.928140032509905 16.236552656766516 21.18942143254654 16.25746302501035 C 13.072321227171853 16.257463025010257 10.014887467621907 20.817329921222395 10.014887467621907 24.782830096736067 C 10.014887467621907 29.937547796158277 13.915436712036573 32.51487988856599 23.087206396005953 36.08397939721717 C 33.94518463652365 40.24739578853597 39.42742919921875 45.402143717583385 39.42742919921875 54.22469905175967 C 39.42742919921875 62.05599311166053 33.62914958755509 69.39220342510946 22.770658717356348 71.07653533360357 L 22.770658717356348 81.38690948486328 L 16.129218219768777 81.38690948486328 Z" fill="rgb(251,193,188)"/>
        </svg>